<svg xmlns="http://www.w3.org/2000/svg" width="132" height="40" viewBox="0 0 132 40" fill="none">
  <g clip-path="url(#clip0_348_3339)">
    <path d="M81.8725 31.1249C74.2111 36.772 63.106 39.785 53.5448 39.785C40.1386 39.785 28.0695 34.8265 18.9386 26.5795C18.2213 25.9311 18.864 25.0472 19.7249 25.5522C29.5789 31.2855 41.7627 34.7346 54.3482 34.7346C62.8363 34.7346 72.1737 32.9785 80.7592 29.3342C82.0562 28.7832 83.1409 30.1836 81.8725 31.1249Z" fill="#AAAAAA"/>
    <path d="M85.058 27.4805C84.0823 26.2294 78.5843 26.8894 76.1166 27.1821C75.3649 27.274 75.2499 26.6197 75.9272 26.1491C80.306 23.0673 87.4914 23.9568 88.3291 24.9898C89.1671 26.0287 88.1111 33.2311 83.9963 36.6688C83.365 37.1968 82.7623 36.9155 83.0436 36.2152C83.9676 33.9082 86.0394 28.7374 85.058 27.4805Z" fill="#AAAAAA"/>
    <path d="M76.2868 4.39253V1.39677C76.2868 0.943388 76.6311 0.639221 77.0444 0.639221H90.4565C90.8869 0.639221 91.2312 0.949128 91.2312 1.39677V3.9621C91.2255 4.39253 90.8639 4.95494 90.2212 5.84449L83.2712 15.7672C85.8538 15.7041 88.5798 16.0886 90.9212 17.4086C91.4492 17.707 91.5929 18.1432 91.6329 18.5736V21.7702C91.6329 22.2064 91.1509 22.7171 90.6459 22.4531C86.5195 20.2896 81.0388 20.0543 76.4761 22.4761C76.0114 22.7287 75.5234 22.2237 75.5234 21.7874V18.7515C75.5234 18.2637 75.5293 17.4315 76.0171 16.6912L84.0688 5.14434H77.0617C76.6311 5.14434 76.2868 4.84017 76.2868 4.39253Z" fill="#AAAAAA"/>
    <path d="M27.3631 23.0844H23.2827C22.8924 23.0557 22.5824 22.7631 22.5537 22.3901V1.44842C22.5537 1.02947 22.9037 0.696604 23.34 0.696604H27.145C27.5408 0.71381 27.8565 1.01799 27.8854 1.39676V4.13428H27.9598C28.9528 1.48859 30.8178 0.2547 33.3315 0.2547C35.8855 0.2547 37.4809 1.48859 38.6286 4.13428C39.6159 1.48859 41.8599 0.2547 44.2643 0.2547C45.9746 0.2547 47.8456 0.960597 48.9876 2.54456C50.279 4.30645 50.015 6.86604 50.015 9.10999L50.0091 22.327C50.0091 22.7458 49.659 23.0844 49.223 23.0844H45.1483C44.7407 23.0557 44.4136 22.7287 44.4136 22.327V11.2277C44.4136 10.3439 44.4939 8.14009 44.2989 7.30221C43.9946 5.89614 43.0822 5.50016 41.8999 5.50016C40.9129 5.50016 39.8799 6.16014 39.4609 7.21611C39.0419 8.27209 39.0822 10.0397 39.0822 11.2277V22.327C39.0822 22.7458 38.7319 23.0844 38.2959 23.0844H34.2212C33.8079 23.0557 33.4865 22.7287 33.4865 22.327L33.4808 11.2277C33.4808 8.8919 33.8652 5.45423 30.9671 5.45423C28.0344 5.45423 28.1492 8.80583 28.1492 11.2277V22.327C28.1492 22.7458 27.7991 23.0844 27.3631 23.0844Z" fill="#AAAAAA"/>
    <path d="M102.779 0.254761C108.833 0.254761 112.11 5.45429 112.11 12.0656C112.11 18.4531 108.489 23.5208 102.779 23.5208C96.8332 23.5208 93.5962 18.3212 93.5962 11.8418C93.5962 5.32229 96.8732 0.254761 102.779 0.254761ZM102.813 4.53032C99.8059 4.53032 99.6165 8.62796 99.6165 11.1818C99.6165 13.7414 99.5763 19.205 102.779 19.205C105.941 19.205 106.09 14.7974 106.09 12.1116C106.09 10.3439 106.016 8.23198 105.482 6.5562C105.023 5.09848 104.11 4.53032 102.813 4.53032Z" fill="#AAAAAA"/>
    <path d="M119.961 23.0845H115.898C115.49 23.0558 115.163 22.7288 115.163 22.3271L115.157 1.37961C115.192 0.995092 115.53 0.696665 115.944 0.696665H119.726C120.081 0.713871 120.374 0.954921 120.454 1.28204V4.48441H120.529C121.671 1.62065 123.272 0.254761 126.09 0.254761C127.921 0.254761 129.706 0.914747 130.853 2.72253C131.921 4.39832 131.921 7.21617 131.921 9.24203V22.4245C131.875 22.7918 131.536 23.0845 131.135 23.0845H127.043C126.67 23.0558 126.36 22.7804 126.32 22.4245V11.0498C126.32 8.75996 126.584 5.40839 123.766 5.40839C122.773 5.40839 121.86 6.07412 121.407 7.08417C120.833 8.36398 120.759 9.63803 120.759 11.0498V22.3271C120.753 22.7458 120.397 23.0845 119.961 23.0845Z" fill="#AAAAAA"/>
    <path d="M12.1028 13.0814V12.1976C9.15296 12.1976 6.03668 12.8289 6.03668 16.3068C6.03668 18.0686 6.94919 19.2624 8.51594 19.2624C9.66373 19.2624 10.691 18.5564 11.3395 17.4086C12.143 15.9969 12.1028 14.6711 12.1028 13.0814ZM16.2177 23.0271C15.948 23.2681 15.5577 23.2854 15.2535 23.1247C13.8991 21.9998 13.6581 21.4776 12.912 20.4044C10.6738 22.6885 9.08984 23.3714 6.18589 23.3714C2.75395 23.3714 0.0795898 21.2538 0.0795898 17.0127C0.0795898 13.7013 1.8759 11.4458 4.42976 10.3439C6.64502 9.36829 9.73835 9.19613 12.1028 8.92639V8.39841C12.1028 7.42851 12.1774 6.28072 11.6093 5.44282C11.11 4.69101 10.1573 4.38111 9.31939 4.38111C7.76413 4.38111 6.37529 5.17882 6.03668 6.83166C5.96782 7.19896 5.69808 7.56051 5.33078 7.57774L1.37087 7.15304C1.038 7.07843 0.670706 6.8087 0.76253 6.29793C1.67503 1.50013 6.00798 0.053894 9.88756 0.053894C11.8733 0.053894 14.4673 0.581882 16.034 2.0855C18.0197 3.9392 17.8303 6.41272 17.8303 9.10432V15.4631C17.8303 17.3742 18.6223 18.2121 19.3684 19.2451C19.6324 19.6124 19.6898 20.0543 19.3569 20.3298C18.5248 21.0242 17.0441 22.3154 16.2292 23.0387L16.2177 23.0271Z" fill="#AAAAAA"/>
    <path d="M64.9983 13.0814V12.1976C62.0485 12.1976 58.9322 12.8289 58.9322 16.3068C58.9322 18.0686 59.8448 19.2624 61.4115 19.2624C62.5592 19.2624 63.5865 18.5564 64.2349 17.4086C65.0385 15.9969 64.9983 14.6711 64.9983 13.0814ZM69.1132 23.0271C68.8436 23.2681 68.4532 23.2854 68.149 23.1247C66.7946 21.9998 66.5536 21.4776 65.8076 20.4044C63.5692 22.6885 61.9852 23.3714 59.0815 23.3714C55.6495 23.3714 52.9751 21.2538 52.9751 17.0127C52.9751 13.7013 54.7714 11.4458 57.3252 10.3439C59.5405 9.36829 62.6339 9.19613 64.9983 8.92639V8.39841C64.9983 7.42851 65.0729 6.28072 64.5049 5.44282C64.0055 4.69101 63.0529 4.38111 62.2149 4.38111C60.6596 4.38111 59.2708 5.17882 58.9322 6.83166C58.8632 7.19896 58.5935 7.56051 58.2262 7.57774L54.2664 7.15304C53.9335 7.07843 53.5661 6.8087 53.6581 6.29793C54.5705 1.50013 58.9035 0.053894 62.7832 0.053894C64.7688 0.053894 67.3629 0.581882 68.9296 2.0855C70.9153 3.9392 70.7259 6.41272 70.7259 9.10432V15.4631C70.7259 17.3742 71.5179 18.2121 72.264 19.2451C72.528 19.6124 72.5853 20.0543 72.2524 20.3298C71.4203 21.0242 69.9396 22.3154 69.1246 23.0387L69.1132 23.0271Z" fill="#AAAAAA"/>
  </g>
  <defs>
    <clipPath id="clip0_348_3339">
      <rect width="132" height="39.8408" fill="white"/>
    </clipPath>
  </defs>
</svg>