<svg xmlns="http://www.w3.org/2000/svg" width="144" height="47" viewBox="0 0 144 47" fill="none">
  <g clip-path="url(#clip0_348_3333)">
    <path d="M17.7349 0.00415039H19.0155C23.4611 0.100795 27.8343 1.88872 30.9752 5.05382C29.8155 6.23771 28.6316 7.37328 27.496 8.55718C25.7322 6.96254 23.6061 5.73033 21.2866 5.29543C17.8557 4.5706 14.1591 5.22295 11.2839 7.17999C8.14299 9.23369 6.01681 12.7129 5.55775 16.4337C5.05037 20.1062 6.08929 23.972 8.48124 26.823C10.7765 29.6015 14.2799 31.3411 17.9041 31.4619C21.2866 31.6552 24.8141 30.6162 27.2786 28.2485C29.2114 26.5813 30.1054 24.0444 30.3953 21.58C26.3846 21.58 22.3739 21.6042 18.3631 21.58V16.6028H35.2517C36.1215 21.9424 34.8651 27.9585 30.8061 31.776C28.1 34.482 24.3551 36.0767 20.5376 36.3908C16.841 36.7532 13.0235 36.0525 9.73762 34.2646C5.79936 32.1626 2.65842 28.6109 1.11211 24.431C-0.337552 20.5894 -0.361713 16.2404 0.991307 12.3746C2.22352 8.84711 4.59131 5.73033 7.6356 3.55583C10.5591 1.40549 14.1108 0.2216 17.7349 0.00415039Z" fill="#AAAAAA"/>
    <path d="M114.621 1.2605H119.791V35.7625C118.076 35.7625 116.336 35.7867 114.621 35.7384C114.645 24.2619 114.621 12.7612 114.621 1.2605Z" fill="#AAAAAA"/>
    <path d="M46.752 13.2203C49.9413 12.6163 53.3963 13.2928 56.0299 15.2015C58.4218 16.8928 60.0889 19.5505 60.5963 22.4498C61.2487 25.8082 60.4272 29.4807 58.2527 32.1384C55.9091 35.1103 52.0675 36.7049 48.3225 36.4633C44.8916 36.27 41.5574 34.5545 39.5279 31.7519C37.2326 28.6592 36.6768 24.4069 37.9332 20.7827C39.1896 16.8928 42.7413 13.921 46.752 13.2203ZM47.4768 17.8109C46.1721 18.1492 44.9641 18.8982 44.0943 19.9613C41.7507 22.7639 41.8956 27.3304 44.4809 29.9398C45.9547 31.4378 48.1775 32.1384 50.2312 31.7277C52.1399 31.3894 53.807 30.1089 54.7252 28.4176C56.3198 25.5425 55.8607 21.58 53.4205 19.3331C51.85 17.8834 49.5547 17.2794 47.4768 17.8109Z" fill="#AAAAAA"/>
    <path d="M72.3636 13.2203C76.0119 12.5196 79.9985 13.5343 82.7287 16.0954C87.1743 20.082 87.6575 27.5478 83.8642 32.1384C81.5689 35.0377 77.8481 36.6324 74.1756 36.4632C70.6723 36.3666 67.2173 34.627 65.1394 31.7518C62.7958 28.5867 62.2884 24.2377 63.6173 20.5411C64.9461 16.7719 68.4253 13.8968 72.3636 13.2203ZM73.0884 17.8109C71.7837 18.1491 70.5756 18.8981 69.7058 19.937C67.3864 22.6914 67.483 27.1854 69.9716 29.8189C71.4454 31.3894 73.7407 32.1626 75.8669 31.7277C77.7515 31.3652 79.4428 30.1089 80.3609 28.4176C81.9314 25.5183 81.4723 21.5558 79.0079 19.3089C77.4374 17.8592 75.1421 17.2793 73.0884 17.8109Z" fill="#AAAAAA"/>
    <path d="M94.0825 14.6216C96.861 12.882 100.558 12.3988 103.554 13.8968C104.496 14.3075 105.269 15.0082 106.018 15.7089C106.042 15.0565 106.018 14.38 106.042 13.7035C107.661 13.7277 109.28 13.7035 110.923 13.7277V35.0377C110.899 38.2512 110.077 41.6579 107.758 44.0015C105.221 46.5867 101.331 47.3841 97.8275 46.8525C94.0825 46.2968 90.8207 43.5666 89.3711 40.1116C90.8207 39.4109 92.3429 38.8552 93.8409 38.2028C94.6865 40.1841 96.402 41.8753 98.5523 42.2619C100.703 42.6485 103.191 42.1169 104.593 40.329C106.091 38.4928 106.091 35.98 106.018 33.733C104.907 34.8203 103.626 35.7867 102.08 36.1492C98.7214 37.0914 95.0248 35.9317 92.4395 33.6606C89.8301 31.3894 88.2838 27.8861 88.4288 24.4069C88.5013 20.4686 90.7241 16.6753 94.0825 14.6216ZM99.0838 17.7142C97.61 17.9558 96.2328 18.7773 95.2905 19.9129C93.0194 22.6189 93.0194 26.9438 95.3147 29.6015C96.6194 31.172 98.7214 32.0418 100.751 31.8243C102.66 31.631 104.423 30.423 105.366 28.7559C106.96 25.929 106.695 22.0874 104.544 19.623C103.215 18.1008 101.089 17.3518 99.0838 17.7142Z" fill="#AAAAAA"/>
    <path d="M125.999 15.8538C128.898 13.1478 133.368 12.2297 137.089 13.6552C140.616 14.984 142.863 18.3424 143.999 21.7975C138.756 23.972 133.537 26.1223 128.294 28.2968C129.019 29.674 130.13 30.9304 131.628 31.4377C133.73 32.1867 136.243 31.921 138.007 30.5196C138.707 29.9881 139.263 29.2874 139.795 28.6109C141.124 29.5049 142.452 30.3747 143.781 31.2686C141.897 34.0955 138.732 36.0767 135.325 36.3908C131.556 36.8498 127.545 35.4002 125.105 32.4525C121.094 27.8136 121.481 20.0337 125.999 15.8538ZM128.584 20.3236C127.763 21.5075 127.424 22.9572 127.448 24.3827C130.952 22.933 134.455 21.4834 137.958 20.0095C137.379 18.6565 135.977 17.835 134.552 17.6176C132.256 17.2069 129.865 18.4391 128.584 20.3236Z" fill="#AAAAAA"/>
  </g>
  <defs>
    <clipPath id="clip0_348_3333">
      <rect width="144" height="47.0016" fill="white"/>
    </clipPath>
  </defs>
</svg>