<svg xmlns="http://www.w3.org/2000/svg" width="128" height="35" viewBox="0 0 128 35" fill="none">
<g id="Group">
<path id="Vector" d="M17.6004 32.363C15.6749 32.7011 13.7155 32.8025 11.6886 33.0725L5.50637 14.9655V33.8496C3.58087 34.0522 1.82425 34.3225 0 34.5928V0H5.135L12.1615 19.6276V0H17.6004V32.363ZM28.2418 12.6683C30.3364 12.6683 33.5456 12.5669 35.4711 12.5669V17.9719C33.0725 17.9719 30.2688 17.9719 28.2418 18.0732V26.1135C31.4174 25.9109 34.5929 25.6404 37.802 25.539V30.7411L22.8365 31.9237V0H37.802V5.40513H28.2418V12.6683ZM57.9022 5.40525H52.2945V30.2687C50.4702 30.2687 48.646 30.2687 46.8896 30.3361V5.40525H41.2819V0H57.9025L57.9022 5.40525ZM66.6855 12.2968H74.0839V17.7017H66.6855V29.9648H61.3814V0H76.4824V5.40513H66.6855V12.2968ZM85.2656 25.2351C88.3399 25.3025 91.4476 25.5394 94.4544 25.708V31.0456C89.6236 30.7414 84.7928 30.4377 79.8606 30.3361V0H85.2656V25.2351ZM99.0149 31.4172C100.738 31.5187 102.562 31.6201 104.319 31.8225V0H99.0149V31.4172ZM128 0L121.142 16.4519L128 34.5928C125.973 34.3225 123.946 33.9509 121.919 33.613L118.034 23.6138L114.082 32.8025C112.122 32.4644 110.231 32.363 108.272 32.0928L115.231 16.249L108.947 0H114.757L118.304 9.08737L122.088 0H128Z" fill="#AAAAAA"/>
</g>
</svg>